 http://img801.imageshack.us/img801/4762/thor2011n.jpg

Country.......: USA
Genre.........: Fantasy, Adventure, Action
Date release..: 21.03.2011 [World]
Director......: Kenneth Branagh
Writers.......: Ashley Miller, Zack Stentz
Duration......: 115 min.
More..........: http://www.imdb.com/title/tt0800369
Trailer.......: http://www.imdb.com/video/imdb/vi1431476761
Trailer.......:

Pilot :
The powerful but arrogant warrior Thor is cast out of the fantastic realm of Asgard and sent to live amongst humans on Earth, where he soon becomes one of their finest defenders. 

Cats :
Chris Hemsworth   	 ...  	Thor
Natalie Portman 	... 	Jane Foster
Tom Hiddleston 	... 	Loki
Anthony Hopkins 	... 	Odin
Stellan Skarsgard 	... 	Erik Selvig
Kat Dennings 	... 	Darcy Lewis
Clark Gregg 	... 	Agent Coulson
Idris Elba 	... 	Heimdall
Colm Feore 	... 	King Laufey
Ray Stevenson 	... 	Volstagg
Tadanobu Asano 	... 	Hogun
Josh Dallas 	... 	Fandral
Jaimie Alexander 	... 	Sif
Rene Russo 	... 	Frigga
Adriana Barraza 	... 	Isabel Alvarez 

Data Technical :
!!! SAMPLE !!!
Audio.....: English
Subtitles.: English .srt, Spanish .srt, Portuguese .srt, Greece .srt, Polish .txt
[ CD1 ]
Format                           : AVI
Format/Info                      : Audio Video Interleave
File size                        : 701 MiB
Duration                         : 1h 7mn
Overall bit rate                 : 1 451 Kbps
Writing application              : VirtualDubMod 1.5.10.2 (build 2540/release)
Writing library                  : VirtualDubMod build 2540/release
segm                             :
Video
ID                               : 0
Format                           : MPEG-4 Visual
Format profile                   : Advanced Simple@L5
Format settings, BVOP            : Yes
Format settings, QPel            : No
Format settings, GMC             : No warppoints
Format settings, Matrix          : Default (H.263)
Codec ID                         : XVID
Codec ID/Hint                    : XviD
Duration                         : 1h 7mn
Bit rate                         : 993 Kbps
Width                            : 640 pixels
Height                           : 272 pixels
Display aspect ratio             : 2.35:1
Frame rate                       : 23.976 fps
Color space                      : YUV
Chroma subsampling               : 4:2:0
Bit depth                        : 8 bits
Scan type                        : Progressive
Bits/(Pixel*Frame)               : 0.238
Stream size                      : 480 MiB (68%)
Writing library                  : XviD 1.2.1 (UTC 2008-12-04)
Audio
ID                               : 1
Format                           : AC-3
Format/Info                      : Audio Coding 3
Mode extension                   : CM (complete main)
Codec ID                         : 2000
Duration                         : 1h 7mn
Bit rate mode                    : Constant
Bit rate                         : 448 Kbps
Channel(s)                       : 6 channels
Channel positions                : Front: L C R, Side: L R, LFE
Sampling rate                    : 48.0 KHz
Bit depth                        : 16 bits
Stream size                      : 216 MiB (31%)
Alignment                        : Split accross interleaves
Interleave, duration             : 42 ms (1.00 video frame)
Interleave, preload duration     : 500 ms
[ CD2 ]
Format                           : AVI
Format/Info                      : Audio Video Interleave
File size                        : 701 MiB
Duration                         : 47mn 19s
Overall bit rate                 : 2 071 Kbps
Writing application              : VirtualDubMod 1.5.10.2 (build 2540/release)
Writing library                  : VirtualDubMod build 2540/release
Video
ID                               : 0
Format                           : MPEG-4 Visual
Format profile                   : Advanced Simple@L5
Format settings, BVOP            : Yes
Format settings, QPel            : No
Format settings, GMC             : No warppoints
Format settings, Matrix          : Default (H.263)
Codec ID                         : XVID
Codec ID/Hint                    : XviD
Duration                         : 47mn 19s
Bit rate                         : 1 613 Kbps
Width                            : 640 pixels
Height                           : 272 pixels
Display aspect ratio             : 2.35:1
Frame rate                       : 23.976 fps
Color space                      : YUV
Chroma subsampling               : 4:2:0
Bit depth                        : 8 bits
Scan type                        : Progressive
Bits/(Pixel*Frame)               : 0.387
Stream size                      : 546 MiB (78%)
Writing library                  : XviD 1.2.1 (UTC 2008-12-04)
Audio
ID                               : 1
Format                           : AC-3
Format/Info                      : Audio Coding 3
Mode extension                   : CM (complete main)
Codec ID                         : 2000
Duration                         : 47mn 19s
Bit rate mode                    : Constant
Bit rate                         : 448 Kbps
Channel(s)                       : 6 channels
Channel positions                : Front: L C R, Side: L R, LFE
Sampling rate                    : 48.0 KHz
Bit depth                        : 16 bits
Video delay                      : 3ms
Stream size                      : 152 MiB (22%)
Alignment                        : Split accross interleaves
Interleave, duration             : 42 ms (1.00 video frame)
Interleave, preload duration     : 500 ms

Screen : 
http://img832.imageshack.us/img832/4928/thor2011s1.jpg 
http://img217.imageshack.us/img217/2876/thor2011s2.jpg 
http://img269.imageshack.us/img269/8004/thor2011s3.jpg 
http://img689.imageshack.us/img689/5701/thor2011s4.jpg 
http://img830.imageshack.us/img830/6727/thor2011s5.jpg